<svg xmlns="http://www.w3.org/2000/svg" width="378.915" height="60.975" viewBox="0 0 378.915 60.975">
  <g id="Group_2" data-name="Group 2" transform="translate(-45.876 -40.42)">
    <path id="Path_24" data-name="Path 24" d="M18.224.67a23.827,23.827,0,0,1-5.863-.737A13.914,13.914,0,0,1,7.136-2.613,13.556,13.556,0,0,1,3.35-7.437a17.194,17.194,0,0,1-1.474-7.571,36.185,36.185,0,0,1,.268-4.02,26.336,26.336,0,0,1,1.039-4.824,25.534,25.534,0,0,1,2.144-4.924,16.728,16.728,0,0,1,3.584-4.389,17.517,17.517,0,0,1,5.36-3.149,20.982,20.982,0,0,1,7.5-1.206,18.8,18.8,0,0,1,5.9.8,10.467,10.467,0,0,1,3.886,2.178A8.2,8.2,0,0,1,33.7-31.356a11.1,11.1,0,0,1,.67,3.886,10.284,10.284,0,0,1-1.24,5.226,11.514,11.514,0,0,1-3.216,3.584,15.974,15.974,0,0,1-4.389,2.245,35.6,35.6,0,0,1-4.757,1.24,32.989,32.989,0,0,1-4.321.536q-1.977.1-3.049.1a8.773,8.773,0,0,0,.368,2.512,6.467,6.467,0,0,0,1.106,2.178,5.615,5.615,0,0,0,1.943,1.541,6.543,6.543,0,0,0,2.948.6,5.392,5.392,0,0,0,2.713-.569,6.13,6.13,0,0,0,1.575-1.273q.6-.7,1.038-1.273a1.4,1.4,0,0,1,1.173-.569,7.057,7.057,0,0,1,1.173.168,5.234,5.234,0,0,1,1.708.7,5.343,5.343,0,0,1,1.541,1.474,4.053,4.053,0,0,1,.67,2.412,4.979,4.979,0,0,1-1.206,3.35A8.881,8.881,0,0,1,27.035-1,17.229,17.229,0,0,1,22.78.268,26.95,26.95,0,0,1,18.224.67ZM19.5-28.609a3.876,3.876,0,0,0-2.512.837,7.055,7.055,0,0,0-1.742,2.111,11.146,11.146,0,0,0-1.072,2.814Q13.8-21.306,13.6-19.9a15.156,15.156,0,0,0,6.734-1.407,4.164,4.164,0,0,0,2.58-3.819,3.818,3.818,0,0,0-.837-2.412A3.07,3.07,0,0,0,19.5-28.609ZM54-37.52q5.695,0,8.375,2.244a7.142,7.142,0,0,1,2.68,5.729,5.52,5.52,0,0,1-1.842,4.489,8.1,8.1,0,0,1-5.326,1.541,2.743,2.743,0,0,1-1.273-.2.787.787,0,0,1-.335-.737,10.743,10.743,0,0,0-.1-1.374,4.374,4.374,0,0,0-.469-1.474,3.011,3.011,0,0,0-1.139-1.172,4.205,4.205,0,0,0-2.178-.469,4.708,4.708,0,0,0-3.015.9A2.762,2.762,0,0,0,48.24-25.8a2.624,2.624,0,0,0,1.173,2.245,14.952,14.952,0,0,0,2.948,1.575q1.775.737,3.852,1.507a16.322,16.322,0,0,1,3.853,2.043,10.864,10.864,0,0,1,2.948,3.183,9.293,9.293,0,0,1,1.173,4.924,10.167,10.167,0,0,1-3.417,7.906Q57.352.67,50.518.67A35.8,35.8,0,0,1,46.2.369,30.145,30.145,0,0,1,41.54-.57a12.194,12.194,0,0,1-3.718-1.709,3.19,3.19,0,0,1-1.507-2.68,5.843,5.843,0,0,1,.234-1.474,6.182,6.182,0,0,1,.737-1.675,5.5,5.5,0,0,1,1.206-1.374A2.629,2.629,0,0,1,40.2-10.05a2.811,2.811,0,0,1,1.474.4q.67.4,1.575.838a15.543,15.543,0,0,0,2.244.838,12.732,12.732,0,0,0,3.551.4,10.139,10.139,0,0,0,2.981-.4,1.717,1.717,0,0,0,1.306-1.809,2.4,2.4,0,0,0-1.072-2.043,13.235,13.235,0,0,0-2.714-1.441q-1.642-.67-3.551-1.44a14.816,14.816,0,0,1-3.551-2.043A10.2,10.2,0,0,1,39.731-20a10.714,10.714,0,0,1-1.072-5.126,11.415,11.415,0,0,1,1.374-5.8,11.547,11.547,0,0,1,3.551-3.853,14.557,14.557,0,0,1,4.924-2.111A24.268,24.268,0,0,1,54-37.52Zm39.061,0q6.3,0,9.48,3.886t3.183,12.261a32.929,32.929,0,0,1-1.206,9.313,21.559,21.559,0,0,1-3.35,6.935A14.612,14.612,0,0,1,96.145-.8,13.482,13.482,0,0,1,89.914.67,8.944,8.944,0,0,1,84.353-.871,10.106,10.106,0,0,1,81.2-5.226q-.2,2.412-.335,3.685T80.668.5q-.067.771-.1,1.374t-.134,1.608q-.1,1.005-.234,2.747t-.4,4.824a1.768,1.768,0,0,1-.335,1.072,1.684,1.684,0,0,1-1.139.268H75.911a10.922,10.922,0,0,1-3.383-.436,5.007,5.007,0,0,1-2.077-1.239,4.371,4.371,0,0,1-1.072-1.977,10.953,10.953,0,0,1-.3-2.714q0-.67.2-3.618t.5-7.069q.3-4.121.67-8.878t.7-9.079q.335-4.321.57-7.672t.368-4.623a3.38,3.38,0,0,1,.335-1.742,1.749,1.749,0,0,1,1.072-.2h2.613q3.618,0,5.26,1.507a4.708,4.708,0,0,1,1.641,3.584A9.841,9.841,0,0,1,87-36.18,12.487,12.487,0,0,1,93.063-37.52Zm-4.891,8.911a5.34,5.34,0,0,0-5.025,2.948,16.886,16.886,0,0,0-1.608,8.04,24.618,24.618,0,0,0,.235,3.417,11.05,11.05,0,0,0,.837,3.015,5.507,5.507,0,0,0,1.642,2.144,4.2,4.2,0,0,0,2.646.8,5.72,5.72,0,0,0,4.824-2.814q1.943-2.814,1.943-8.844a22.036,22.036,0,0,0-.234-3.25,9.225,9.225,0,0,0-.838-2.78,5.057,5.057,0,0,0-1.675-1.943A4.747,4.747,0,0,0,88.172-28.609Zm20.7,20.368a10.627,10.627,0,0,1,5.427-9.447q5.427-3.417,16.013-3.685.067-.737.1-1.24t.034-1.24a6.342,6.342,0,0,0-.8-3.417q-.8-1.273-3.35-1.273a5.48,5.48,0,0,0-2.278.4,3.659,3.659,0,0,0-1.407,1.105,5.846,5.846,0,0,0-.871,1.708,22.326,22.326,0,0,0-.6,2.211.962.962,0,0,1-.6.771,4.733,4.733,0,0,1-1.474.167q-6.834,0-6.834-5.159a8.481,8.481,0,0,1,.972-3.953,9.231,9.231,0,0,1,2.881-3.25,15.1,15.1,0,0,1,4.791-2.178,25.038,25.038,0,0,1,6.7-.8q7.437,0,10.787,3.082t3.35,8.71q0,.737-.167,2.646t-.4,4.02q-.234,2.11-.4,3.986t-.167,2.613a3.669,3.669,0,0,0,.6,2.378,3.182,3.182,0,0,0,1.374.972,12.506,12.506,0,0,0,1.373.4.655.655,0,0,1,.6.67,11.917,11.917,0,0,1-.4,3.015,8.535,8.535,0,0,1-1.307,2.814,6.713,6.713,0,0,1-2.479,2.077,8.4,8.4,0,0,1-3.852.8,6.729,6.729,0,0,1-4.824-1.541,7.829,7.829,0,0,1-2.144-4.288,15.552,15.552,0,0,1-4.187,4.087A11.816,11.816,0,0,1,118.59.67,14.773,14.773,0,0,1,114.8.2a8.015,8.015,0,0,1-3.082-1.541,7.528,7.528,0,0,1-2.077-2.78A9.978,9.978,0,0,1,108.875-8.241Zm20.837-7.638a21.6,21.6,0,0,0-3.417.268,12.323,12.323,0,0,0-2.981.838,5.748,5.748,0,0,0-2.11,1.507,3.381,3.381,0,0,0-.8,2.278,2.319,2.319,0,0,0,.971,2.144,3.927,3.927,0,0,0,2.111.6,5.311,5.311,0,0,0,2.144-.469,5.339,5.339,0,0,0,1.91-1.44,9.107,9.107,0,0,0,1.441-2.378A10.3,10.3,0,0,0,129.712-15.879ZM171.453-5.9q0-1.474.235-3.852t.469-5.025q.234-2.647.469-5.126t.235-4.154a5.864,5.864,0,0,0-.838-3.115q-.838-1.373-3.249-1.374a6.362,6.362,0,0,0-3.886,1.139,8.467,8.467,0,0,0-2.579,4.154,43.274,43.274,0,0,0-1.708,8.308q-.67,5.293-1.273,13.6a1.768,1.768,0,0,1-.335,1.072A1.684,1.684,0,0,1,157.852,0H155.44a10.922,10.922,0,0,1-3.383-.435,5.007,5.007,0,0,1-2.077-1.24,4.371,4.371,0,0,1-1.072-1.977,10.952,10.952,0,0,1-.3-2.714q0-1,.1-2.848t.368-5.092q.268-3.249.636-8.241t.9-12.361a3.38,3.38,0,0,1,.335-1.742,1.749,1.749,0,0,1,1.072-.2h2.613a9.949,9.949,0,0,1,3.316.469,5.868,5.868,0,0,1,2.11,1.24,4.3,4.3,0,0,1,1.139,1.809,8.6,8.6,0,0,1,.4,2.11,12.2,12.2,0,0,1,4.757-4.924,14.606,14.606,0,0,1,6.7-1.374,17.641,17.641,0,0,1,4.891.6,7.583,7.583,0,0,1,3.451,2.043,8.931,8.931,0,0,1,2.044,3.752,20.887,20.887,0,0,1,.67,5.729q0,1.072-.134,3.082t-.335,4.389q-.2,2.378-.435,4.958l-.436,4.79q-.2,2.211-.335,3.886t-.134,2.211q0,1.474-.335,1.776A2.4,2.4,0,0,1,180.5,0h-2.144a12.431,12.431,0,0,1-3.484-.4,4.852,4.852,0,0,1-2.077-1.139,4.059,4.059,0,0,1-1.038-1.842A9.566,9.566,0,0,1,171.453-5.9ZM205.69-37.52q5.695,0,8.375,2.244a7.142,7.142,0,0,1,2.68,5.729,5.52,5.52,0,0,1-1.842,4.489,8.1,8.1,0,0,1-5.326,1.541,2.742,2.742,0,0,1-1.273-.2.787.787,0,0,1-.335-.737,10.743,10.743,0,0,0-.1-1.374A4.374,4.374,0,0,0,207.4-27.3a3.011,3.011,0,0,0-1.139-1.172,4.205,4.205,0,0,0-2.178-.469,4.708,4.708,0,0,0-3.015.9,2.762,2.762,0,0,0-1.139,2.244,2.624,2.624,0,0,0,1.172,2.245,14.952,14.952,0,0,0,2.948,1.575q1.776.737,3.852,1.507a16.322,16.322,0,0,1,3.853,2.043,10.864,10.864,0,0,1,2.948,3.183,9.293,9.293,0,0,1,1.173,4.924,10.167,10.167,0,0,1-3.417,7.906Q209.04.67,202.206.67a35.8,35.8,0,0,1-4.322-.3,30.145,30.145,0,0,1-4.657-.938,12.193,12.193,0,0,1-3.718-1.709A3.19,3.19,0,0,1,188-4.958a5.843,5.843,0,0,1,.234-1.474,6.183,6.183,0,0,1,.737-1.675,5.5,5.5,0,0,1,1.206-1.374,2.629,2.629,0,0,1,1.708-.569,2.811,2.811,0,0,1,1.474.4q.67.4,1.575.838a15.543,15.543,0,0,0,2.244.838,12.732,12.732,0,0,0,3.551.4,10.139,10.139,0,0,0,2.982-.4,1.717,1.717,0,0,0,1.307-1.809,2.4,2.4,0,0,0-1.072-2.043,13.235,13.235,0,0,0-2.714-1.441q-1.641-.67-3.551-1.44a14.816,14.816,0,0,1-3.551-2.043A10.2,10.2,0,0,1,191.419-20a10.713,10.713,0,0,1-1.072-5.126,11.415,11.415,0,0,1,1.374-5.8,11.547,11.547,0,0,1,3.551-3.853,14.557,14.557,0,0,1,4.924-2.111A24.268,24.268,0,0,1,205.69-37.52ZM236.577.67a19.56,19.56,0,0,1-7.672-1.307,12.182,12.182,0,0,1-4.857-3.585A13.568,13.568,0,0,1,221.5-9.548a27.739,27.739,0,0,1-.737-6.532,32.071,32.071,0,0,1,.972-7.873,18.362,18.362,0,0,1,3.316-6.867,16.95,16.95,0,0,1,6.2-4.858,22.232,22.232,0,0,1,9.615-1.842q8.442,0,12.094,4.12t3.652,11.558a38.779,38.779,0,0,1-.3,4.589,24.791,24.791,0,0,1-1.139,4.992,23.691,23.691,0,0,1-2.278,4.824,16.516,16.516,0,0,1-3.652,4.154A17.112,17.112,0,0,1,243.914-.4,22.583,22.583,0,0,1,236.577.67Zm3.149-29.279a5.975,5.975,0,0,0-4.054,1.306,8.4,8.4,0,0,0-2.278,3.149,14.221,14.221,0,0,0-1,3.886,31.085,31.085,0,0,0-.234,3.45q0,4.422,1.407,6.5a4.567,4.567,0,0,0,4.02,2.077,5.281,5.281,0,0,0,3.853-1.474,10.267,10.267,0,0,0,2.345-3.551,17.864,17.864,0,0,0,1.139-4.355,29.985,29.985,0,0,0,.3-3.819,9.594,9.594,0,0,0-1.24-5.259Q242.741-28.609,239.726-28.609Z" transform="translate(44 89)" fill="#fff"/>
    <path id="Path_33" data-name="Path 33" d="M24.991-8.308q.2-2.211.436-4.623t.4-4.623q.167-2.211.3-3.953t.134-2.546a5.864,5.864,0,0,0-.837-3.115q-.838-1.373-3.25-1.374a5.978,5.978,0,0,0-5.193,3.015,16.548,16.548,0,0,0-2.312,8.04q-.134,1.407-.335,3.92t-.4,5.092q-.2,2.58-.368,4.623T13.4-1.34a1.429,1.429,0,0,1-.3,1.072A1.837,1.837,0,0,1,11.926,0H9.514A10.922,10.922,0,0,1,6.131-.435a5.007,5.007,0,0,1-2.077-1.24A4.371,4.371,0,0,1,2.982-3.652a10.953,10.953,0,0,1-.3-2.714q0-1.474.234-4.121t.636-7.3q.4-4.656.938-11.893T5.628-47.637a3.38,3.38,0,0,1,.335-1.742,1.749,1.749,0,0,1,1.072-.2H9.648a10.255,10.255,0,0,1,3.35.469,5.586,5.586,0,0,1,2.144,1.273A4.557,4.557,0,0,1,16.281-46a7.049,7.049,0,0,1,.335,2.177q0,1.206-.235,4.489t-.569,7.7a11.867,11.867,0,0,1,4.455-4.623,13.361,13.361,0,0,1,6.2-1.273,17.641,17.641,0,0,1,4.891.6,7.583,7.583,0,0,1,3.45,2.043,8.931,8.931,0,0,1,2.044,3.752,20.888,20.888,0,0,1,.67,5.729q0,1.072-.2,3.685t-.5,5.963q-.3,3.35-.6,7t-.5,6.667q-.067.737-.134,1.139a1.261,1.261,0,0,1-.234.6.843.843,0,0,1-.5.268A5.057,5.057,0,0,1,33.9,0H31.758a12.431,12.431,0,0,1-3.484-.4A4.852,4.852,0,0,1,26.2-1.541a4.059,4.059,0,0,1-1.039-1.842,9.566,9.566,0,0,1-.3-2.513q0-.67.033-1.273T24.991-8.308ZM56.28-31.155q0,1.407-.234,3.953t-.469,5.293q-.235,2.747-.469,5.159t-.235,3.484a5.276,5.276,0,0,0,1.173,3.652,4.142,4.142,0,0,0,3.249,1.306,3.87,3.87,0,0,0,3.049-1.44,11.043,11.043,0,0,0,2.01-3.752,33.19,33.19,0,0,0,1.24-5.259q.469-2.948.7-5.963t.4-5.862q.167-2.847.368-4.925a1.778,1.778,0,0,1,.4-.938,1.319,1.319,0,0,1,1.072-.4h2.412a10.922,10.922,0,0,1,3.383.436,5.007,5.007,0,0,1,2.077,1.239A4.371,4.371,0,0,1,77.486-33.2a10.953,10.953,0,0,1,.3,2.714q0,1.005-.1,2.847t-.368,5.092q-.268,3.25-.636,8.241t-.9,12.362a5.544,5.544,0,0,1-.3,1.675Q75.308,0,74.37,0H71.757A9.949,9.949,0,0,1,68.44-.469a6.166,6.166,0,0,1-2.11-1.206,4.084,4.084,0,0,1-1.139-1.742,8.147,8.147,0,0,1-.4-2.077,13.47,13.47,0,0,1-2.244,2.948,11.152,11.152,0,0,1-2.58,1.91A10.729,10.729,0,0,1,57.218.369a13.092,13.092,0,0,1-2.747.3,11.751,11.751,0,0,1-4.556-.838,10.071,10.071,0,0,1-3.383-2.245,9.611,9.611,0,0,1-2.111-3.35,11.614,11.614,0,0,1-.737-4.154q0-.871.1-2.847t.268-4.455q.168-2.479.368-5.26t.368-5.26q.168-2.479.335-4.355t.235-2.68a2.978,2.978,0,0,1,.536-1.641,1.757,1.757,0,0,1,1.34-.436h2.144a12.136,12.136,0,0,1,3.417.4,5.133,5.133,0,0,1,2.111,1.139,3.929,3.929,0,0,1,1.072,1.776A8.545,8.545,0,0,1,56.28-31.155ZM99.026.67A18.474,18.474,0,0,1,90.852-.838,11.591,11.591,0,0,1,86.3-4.623a11.877,11.877,0,0,1-1.943-4.925,32.541,32.541,0,0,1-.4-4.858q0-.871.168-3.417t.435-5.9q.268-3.35.536-7.136t.536-7.169q.268-3.383.436-6t.167-3.618a3.822,3.822,0,0,1,.2-1.708q.2-.234,1.206-.235h2.613a10.255,10.255,0,0,1,3.35.469,5.586,5.586,0,0,1,2.144,1.273A4.557,4.557,0,0,1,96.882-46a7.272,7.272,0,0,1,.335,2.244q0,1.139-.234,4.422t-.57,7.7a12.818,12.818,0,0,1,3.953-4.455,10.529,10.529,0,0,1,5.829-1.44q6.1,0,9.346,4.02t3.249,11.993a37.957,37.957,0,0,1-.3,4.556,27.345,27.345,0,0,1-1.072,4.925,22.58,22.58,0,0,1-2.144,4.757,14.7,14.7,0,0,1-3.584,4.054A17.976,17.976,0,0,1,106.363-.4,22.583,22.583,0,0,1,99.026.67Zm3.015-29.279a5.354,5.354,0,0,0-3.785,1.273,8.528,8.528,0,0,0-2.111,3.082,13.711,13.711,0,0,0-.938,3.853q-.2,2.043-.2,3.584,0,4.623,1.273,6.6A4.241,4.241,0,0,0,100.1-8.241a4.864,4.864,0,0,0,3.785-1.507,10.023,10.023,0,0,0,2.077-3.585,18.5,18.5,0,0,0,.9-4.221q.2-2.144.2-3.35a11.648,11.648,0,0,0-1.139-5.728A4.115,4.115,0,0,0,102.041-28.609Z" transform="translate(306 90)" fill="#00b894"/>
  </g>
</svg>
